<svg width="106" height="100" viewBox="0 0 106 100" fill="none" xmlns="http://www.w3.org/2000/svg">
<g clip-path="url(#clip0_102_2)">
<rect width="106" height="100" fill="#0A192F"/>
<path d="M46.304 43.296C46.112 43.488 45.888 43.488 45.632 43.296C45.44 43.104 45.28 42.848 45.152 42.528C45.024 42.144 44.96 41.76 44.96 41.376C44.96 40.928 45.056 40.544 45.248 40.224C45.952 39.328 46.976 38.208 48.32 36.864C49.728 35.456 51.168 34.272 52.64 33.312C52.832 33.248 53.024 33.312 53.216 33.504C53.408 33.632 53.44 33.76 53.312 33.888C51.968 35.104 50.688 36.576 49.472 38.304C48.256 39.968 47.2 41.632 46.304 43.296ZM39.872 51.36C38.528 52.064 37.28 52.896 36.128 53.856C35.936 53.984 35.776 53.952 35.648 53.76C35.52 53.568 35.488 53.376 35.552 53.184C35.936 52.8 36.48 52.352 37.184 51.84C37.952 51.328 38.784 50.816 39.68 50.304C40.64 49.728 41.6 49.216 42.56 48.768C43.52 48.256 44.416 47.808 45.248 47.424C45.888 47.424 46.144 47.712 46.016 48.288C43.776 57.184 41.216 64.64 38.336 70.656C35.456 76.672 32.384 81.504 29.12 85.152C25.856 88.864 22.496 91.488 19.04 93.024C15.584 94.624 12.128 95.424 8.672 95.424C6.432 95.424 4.864 94.528 3.968 92.736C3.072 91.008 2.976 88.768 3.68 86.016C3.808 85.824 3.968 85.728 4.16 85.728C4.352 85.728 4.48 85.856 4.544 86.112C4.224 87.968 4.832 89.472 6.368 90.624C7.84 91.84 10.112 92.448 13.184 92.448C15.744 92.448 18.176 91.904 20.48 90.816C22.784 89.728 25.024 87.68 27.2 84.672C29.376 81.664 31.488 77.472 33.536 72.096C35.648 66.784 37.76 59.872 39.872 51.36ZM63.6148 59.328C64.3188 62.72 65.2148 65.344 66.3028 67.2C67.4548 68.992 68.8308 69.888 70.4308 69.888C71.1348 69.888 71.7748 69.728 72.3508 69.408C72.9268 69.088 73.5668 68.48 74.2708 67.584C74.4628 67.52 74.6228 67.584 74.7508 67.776C74.9428 67.904 75.0068 68.064 74.9427 68.256C72.9588 70.752 70.4628 72 67.4548 72C65.0228 72 63.1668 70.944 61.8868 68.832C60.6708 66.656 59.6788 63.424 58.9108 59.136C58.7188 58.624 58.8468 58.304 59.2948 58.176C60.4468 58.432 61.5988 58.464 62.7508 58.272C63.9028 58.08 64.9268 57.728 65.8228 57.216C66.7828 56.704 67.5188 56.032 68.0308 55.2C68.6068 54.368 68.8948 53.44 68.8948 52.416C68.8948 50.816 68.0948 50.016 66.4948 50.016C64.2548 50.016 62.1748 51.104 60.2548 53.28C58.3348 55.392 56.9268 58.528 56.0308 62.688C55.7108 63.776 55.4228 64.928 55.1668 66.144C54.9108 67.296 54.6868 68.32 54.4948 69.216C54.3668 69.728 54.2388 70.112 54.1108 70.368C53.9828 70.56 53.6948 70.784 53.2468 71.04C52.7348 71.296 52.0948 71.52 51.3268 71.712C50.5588 71.904 49.9828 72 49.5988 72C49.1508 72 48.9588 71.68 49.0228 71.04C50.3668 63.936 52.0628 57.248 54.1108 50.976C56.2228 44.64 58.5588 38.816 61.1188 33.504C63.6788 28.192 66.3988 23.424 69.2788 19.2C72.2228 14.976 75.1668 11.424 78.1108 8.544C81.0548 5.6 83.9668 3.36 86.8468 1.824C89.7268 0.223997 92.4468 -0.576004 95.0068 -0.576004C96.6068 -0.576004 97.8548 -0.256004 98.7508 0.383995C99.7108 1.02399 100.351 1.856 100.671 2.88C100.991 3.84 101.023 4.896 100.767 6.048C100.575 7.2 100.127 8.256 99.4228 9.216C98.9748 9.664 98.6868 9.568 98.5588 8.928C98.8788 7.648 98.5588 6.4 97.5988 5.184C96.6388 3.968 95.0388 3.36 92.7988 3.36C89.3428 3.36 85.9828 4.384 82.7188 6.432C79.5188 8.416 76.4148 11.552 73.4068 15.84C70.3988 20.064 67.5188 25.504 64.7668 32.16C62.0788 38.752 59.5508 46.656 57.1828 55.872C58.3988 53.504 59.9988 51.52 61.9828 49.92C64.0308 48.256 66.4308 47.424 69.1828 47.424C71.0388 47.424 72.2548 47.904 72.8308 48.864C73.4708 49.76 73.7908 50.656 73.7908 51.552C73.7908 53.6 72.8308 55.36 70.9108 56.832C68.9908 58.24 66.5588 59.072 63.6148 59.328ZM95.9683 47.904C96.2883 48.032 96.4163 48.224 96.3523 48.48C96.2883 48.672 96.0003 48.832 95.4883 48.96C94.5283 48.96 93.4083 48.992 92.1283 49.056C90.9123 49.12 89.6003 49.216 88.1923 49.344C86.9123 52.48 85.8563 55.552 85.0243 58.56C84.1923 61.504 83.7763 63.904 83.7763 65.76C83.7763 67.936 84.6083 69.024 86.2723 69.024C87.9363 69.024 89.7923 67.584 91.8403 64.704C92.0323 64.576 92.1923 64.576 92.3203 64.704C92.5123 64.832 92.5763 65.056 92.5123 65.376C91.4243 67.168 90.0483 68.736 88.3843 70.08C86.7203 71.36 85.0883 72 83.4883 72C81.8243 72 80.5763 71.616 79.7443 70.848C78.9763 70.016 78.5923 68.896 78.5923 67.488C78.5923 65.632 79.0403 63.072 79.9363 59.808C80.8323 56.544 81.9843 53.216 83.3923 49.824C81.7283 50.016 80.1923 50.272 78.7843 50.592C78.4643 50.528 78.3683 50.368 78.4963 50.112C78.6883 49.856 78.9763 49.6 79.3603 49.344C79.8083 49.024 80.3203 48.768 80.8963 48.576C81.4723 48.32 82.0163 48.192 82.5283 48.192C82.7843 48.192 83.0403 48.192 83.2963 48.192C83.5523 48.192 83.8083 48.16 84.0643 48.096C84.8963 46.24 85.7603 44.448 86.6562 42.72C87.5523 40.992 88.4483 39.424 89.3443 38.016C89.7283 37.568 90.2403 37.184 90.8803 36.864C91.5843 36.48 92.2563 36.192 92.8963 36C93.5363 35.808 94.0483 35.712 94.4323 35.712C94.8803 35.648 95.0723 35.744 95.0083 36C93.9203 37.664 92.8323 39.52 91.7443 41.568C90.7203 43.616 89.7283 45.76 88.7682 48C89.9843 47.936 91.2003 47.904 92.4163 47.904C93.6963 47.904 94.8803 47.904 95.9683 47.904Z" fill="#64FFDA"/>
</g>
<defs>
<clipPath id="clip0_102_2">
<rect width="106" height="100" fill="white"/>
</clipPath>
</defs>
</svg>

